<?xml version="1.0" standalone="no"?>
<!DOCTYPE svg PUBLIC "-//W3C//DTD SVG 20010904//EN"
 "http://www.w3.org/TR/2001/REC-SVG-20010904/DTD/svg10.dtd">
<svg version="1.0" xmlns="http://www.w3.org/2000/svg"
 width="500.000000pt" height="500.000000pt" viewBox="0 0 500.000000 500.000000"
 preserveAspectRatio="xMidYMid meet">

<g transform="translate(0.000000,500.000000) scale(0.100000,-0.100000)"
fill="#000000" stroke="none">
<path d="M2512 4346 c-55 -96 -124 -137 -322 -191 -239 -64 -354 -129 -501
-283 -97 -101 -172 -218 -227 -355 -13 -34 -43 -82 -66 -107 -57 -61 -91 -122
-110 -196 -18 -70 -20 -187 -6 -252 10 -40 8 -47 -26 -105 -52 -88 -90 -191
-116 -309 -18 -87 -22 -136 -22 -313 -1 -267 23 -413 97 -589 17 -40 22 -46
28 -30 4 10 8 51 8 90 2 145 49 334 84 334 21 0 25 -15 37 -137 20 -184 50
-295 113 -418 55 -108 55 -108 54 90 -2 194 5 229 45 223 39 -6 57 -47 78
-182 24 -152 52 -239 120 -378 50 -103 141 -238 160 -238 16 0 12 20 -26 131
-37 109 -52 238 -27 246 17 6 81 -55 102 -96 10 -20 35 -85 55 -146 41 -125
132 -314 178 -369 16 -20 32 -35 35 -33 2 3 -12 56 -32 119 -33 104 -65 235
-65 266 0 39 82 -34 147 -131 52 -77 131 -249 172 -370 44 -129 59 -100 68
131 4 91 11 159 18 168 28 40 87 -26 120 -135 10 -34 23 -60 28 -58 6 2 20 30
32 63 49 139 100 246 144 301 25 31 50 57 55 57 19 2 28 -72 22 -184 -3 -63
-9 -131 -12 -150 l-7 -35 28 25 c15 14 51 59 80 100 123 175 177 338 194 582
9 130 24 168 66 168 28 0 29 -4 45 -122 7 -49 16 -88 20 -88 36 0 98 431 84
583 -3 29 -1 59 5 67 25 36 101 -84 139 -219 12 -40 23 -75 25 -78 3 -2 15 33
28 79 22 75 24 102 24 293 0 182 -3 225 -24 323 -13 62 -21 116 -18 119 3 2
42 -25 87 -62 45 -36 84 -64 87 -61 3 3 -12 38 -34 78 -49 90 -143 310 -143
333 0 13 5 15 18 10 38 -17 119 -35 153 -35 75 0 73 11 -9 51 -55 27 -97 57
-143 102 -60 60 -143 187 -156 238 -5 19 -3 21 13 14 56 -24 143 -53 174 -58
l35 -7 -30 22 c-16 11 -73 64 -125 118 -77 78 -113 127 -192 256 -132 216
-210 329 -293 421 -84 95 -193 193 -272 246 -66 44 -232 127 -256 127 -8 0
-29 -24 -45 -54z m88 -156 c0 -29 -64 -95 -116 -120 -24 -12 -44 -23 -44 -23
0 -2 34 -1 88 2 7 1 11 5 7 10 -3 5 10 15 29 21 23 7 38 20 44 38 l9 27 5 -27
c7 -36 3 -41 -71 -78 -94 -47 -130 -58 -295 -91 -158 -31 -320 -88 -393 -138
-23 -15 -75 -57 -115 -92 -110 -97 -114 -99 -68 -31 61 89 113 145 179 195
118 90 181 117 383 162 158 36 246 72 313 130 22 19 41 34 43 35 1 0 2 -9 2
-20z m347 -193 c23 -27 54 -72 68 -100 l27 -49 -73 49 c-68 46 -151 93 -164
93 -3 0 -5 -5 -5 -11 0 -6 -9 -24 -21 -41 l-21 -29 61 -62 c72 -74 101 -112
146 -192 33 -61 61 -135 33 -89 -7 12 -53 65 -103 119 -97 105 -171 160 -266
197 -32 13 -59 26 -59 30 0 5 -14 8 -32 8 -42 0 -28 11 55 44 l68 26 23 -27
24 -28 13 30 c17 37 31 48 42 32 6 -8 7 -7 4 3 -2 8 -9 14 -14 13 -5 -1 -10 5
-10 13 0 8 6 13 13 10 7 -3 15 1 18 9 3 9 0 12 -10 8 -10 -4 -14 3 -14 26 0
23 4 31 18 30 10 0 12 -3 5 -6 -7 -2 -13 -9 -13 -15 0 -6 9 -3 20 7 18 16 19
20 5 28 -8 4 -13 13 -9 18 7 13 118 -80 171 -144z m-520 -136 c135 -27 162
-34 208 -57 l50 -24 -37 3 c-21 2 -39 -2 -41 -8 -3 -7 -8 -7 -18 1 -36 27
-179 57 -196 41 -3 -4 7 -7 24 -7 34 0 163 -37 178 -51 15 -15 -20 -11 -127
16 -56 14 -113 33 -127 42 -20 14 -48 17 -126 17 -83 0 -111 -4 -165 -26 -114
-45 -108 -43 -84 -25 87 65 322 105 461 78z m539 -56 c53 -41 129 -164 145
-235 5 -23 4 -30 -2 -20 -5 8 -32 53 -60 100 -28 47 -69 106 -90 133 -45 52
-42 60 7 22z m-203 -62 c9 -8 -22 -43 -39 -43 -7 0 -18 -8 -23 -17 -6 -10 -11
-13 -11 -7 0 5 5 15 12 22 7 7 8 12 4 12 -9 0 35 39 45 40 3 0 9 -3 12 -7z
m-909 -47 c-3 -7 -15 -18 -27 -24 -18 -9 -19 -11 -4 -11 24 -1 21 -16 -9 -40
-14 -11 -50 -48 -81 -83 -63 -71 -79 -83 -58 -41 20 38 20 65 0 39 -8 -11 -15
-16 -15 -11 0 13 102 115 115 115 5 -1 -3 -11 -19 -24 -16 -13 -25 -29 -22
-35 5 -7 20 3 42 26 23 24 31 39 23 42 -7 2 1 15 22 32 40 33 40 33 33 15z
m68 2 c-15 -19 -72 -51 -72 -41 0 8 39 37 52 38 3 0 10 3 14 8 12 12 17 8 6
-5z m537 -23 c94 -26 161 -52 161 -64 0 -3 -9 -12 -21 -19 -12 -8 -18 -9 -15
-4 3 6 -8 15 -26 21 -81 25 -163 33 -295 29 -152 -5 -214 -23 -305 -87 -50
-35 -130 -106 -108 -95 8 4 -2 -8 -22 -27 -42 -39 -103 -152 -92 -171 4 -7 4
-10 -1 -6 -8 7 -35 -34 -35 -53 0 -13 33 3 53 26 21 23 19 15 -13 -62 -13 -29
-26 -50 -31 -47 -5 3 -4 14 2 25 5 11 8 25 5 32 -2 7 -5 3 -5 -7 -1 -18 -3
-18 -26 4 -20 19 -23 26 -12 39 7 8 7 12 1 8 -6 -3 -31 3 -55 15 -49 25 -121
28 -160 8 -13 -7 -37 -24 -52 -39 l-29 -26 21 54 c11 29 28 62 38 74 48 54
170 74 229 38 l31 -19 17 36 c128 270 434 400 745 317z m-393 -137 c4 -7 3 -8
-4 -4 -7 4 -12 2 -12 -3 0 -6 -5 -11 -11 -11 -8 0 -8 5 1 15 15 18 17 18 26 3z
m-78 -43 c-20 -14 -42 -25 -47 -25 -6 0 -10 -3 -9 -7 2 -5 -20 -28 -47 -53
-28 -24 -40 -33 -28 -20 59 68 93 103 93 96 0 -4 12 2 28 13 15 11 31 21 37
21 5 0 -7 -11 -27 -25z m855 12 c3 -8 -1 -14 -8 -14 -7 0 -11 6 -8 14 3 7 6
13 8 13 2 0 5 -6 8 -13z m12 -45 c-3 -3 -11 0 -18 7 -9 10 -8 11 6 5 10 -3 15
-9 12 -12z m-482 -51 c25 -12 63 -36 84 -53 36 -29 38 -29 41 -9 2 12 8 21 13
21 23 0 87 -42 127 -82 l42 -44 58 27 c31 15 70 31 85 34 26 7 28 6 21 -20
l-7 -27 54 28 c39 19 74 28 126 32 64 4 79 1 127 -22 103 -50 165 -148 184
-291 12 -89 0 -156 -39 -216 -39 -62 -79 -96 -128 -109 -47 -12 -76 -3 -115
38 -32 35 -29 47 15 56 17 3 46 21 65 40 37 37 35 38 47 -29 3 -17 6 -15 25
15 24 38 29 101 12 146 -14 36 -5 42 31 22 25 -15 29 -15 29 -2 0 43 -62 113
-122 138 -42 18 -117 21 -166 7 -30 -9 -31 -8 -21 11 6 11 27 37 46 59 75 83
-44 28 -150 -70 -42 -39 -79 -71 -81 -71 -3 0 4 24 13 53 10 28 21 68 25 87
l6 35 -58 -62 c-77 -83 -86 -84 -118 -20 -30 59 -50 84 -79 100 -17 8 -18 8
-9 -4 14 -17 34 -98 34 -136 0 -25 -11 -16 -112 89 -94 96 -121 118 -162 132
-27 9 -53 16 -58 16 -4 0 22 -29 59 -65 67 -64 67 -65 28 -48 -62 26 -217 24
-270 -4 -53 -28 -98 -78 -119 -132 l-17 -44 37 32 c42 38 52 34 33 -11 -19
-47 -16 -126 6 -168 l19 -35 6 45 c9 71 19 78 45 33 32 -54 95 -87 175 -93
l65 -5 -58 -39 c-48 -32 -69 -41 -117 -44 -73 -5 -117 9 -179 58 -58 46 -106
135 -116 215 -19 152 117 348 278 401 62 20 182 13 240 -15z m-555 -85 c-13
-19 -24 -33 -26 -32 -5 5 33 66 41 66 4 0 -3 -15 -15 -34z m-238 -171 c34 -18
38 -33 13 -42 -33 -11 -83 -54 -98 -83 -21 -42 -19 -79 11 -137 l25 -52 -29
-40 -30 -41 -37 88 c-63 144 -49 258 35 304 42 22 72 23 110 3z m683 -147 c23
-12 60 -27 82 -33 l40 -12 -34 -18 c-70 -36 -161 -2 -161 61 0 30 18 31 73 2z
m769 -113 c-9 -51 -66 -69 -123 -39 -43 22 -32 37 37 50 91 18 92 17 86 -11z
m-324 0 l52 -16 -25 -33 c-14 -18 -25 -35 -25 -37 0 -3 19 -3 43 -1 l42 3 -26
-18 c-15 -10 -38 -26 -52 -36 l-26 -19 -48 40 c-26 21 -66 46 -88 55 l-40 16
55 1 55 0 -30 20 c-16 11 -40 20 -53 20 -13 0 -20 4 -17 10 9 15 125 12 183
-5z m-978 -20 c0 -4 -7 -19 -15 -35 -9 -17 -12 -30 -8 -30 5 0 3 -4 -3 -8 -11
-7 -57 -117 -54 -128 1 -4 -3 -10 -9 -13 -6 -4 -17 -23 -26 -43 l-15 -37 45
27 c28 17 45 34 45 47 1 22 27 62 35 53 8 -8 -7 -68 -17 -68 -5 0 -6 -5 -2
-12 4 -6 0 -16 -8 -22 -9 -6 -18 -20 -21 -31 -3 -15 -5 -14 -6 7 -2 42 -23 25
-51 -41 -13 -33 -33 -62 -45 -67 -11 -5 -20 -16 -20 -24 0 -8 -3 -17 -7 -20
-3 -3 -16 -34 -27 -68 -17 -50 -19 -67 -10 -78 6 -8 10 -14 8 -15 -43 -9 -42
-11 -35 54 12 109 64 286 113 381 22 43 116 176 126 176 4 0 7 -2 7 -5z m295
-176 c22 -9 59 -20 83 -24 23 -4 42 -9 42 -11 0 -14 -42 -84 -50 -84 -28 0
-100 37 -133 69 -36 33 -74 95 -98 158 -7 20 4 13 53 -32 34 -32 81 -66 103
-76z m-272 82 c3 -11 -1 -25 -9 -32 -8 -6 -11 -16 -7 -23 3 -6 0 -5 -8 3 -12
11 -12 15 3 24 15 10 15 12 0 25 -9 7 -11 10 -3 6 11 -5 13 -3 8 10 -4 9 -3
15 2 12 5 -3 11 -15 14 -25z m781 -13 c29 -8 60 -31 104 -76 l63 -65 32 30
c103 98 223 84 297 -35 35 -55 54 -138 45 -190 -9 -52 -64 -124 -132 -170 -62
-43 -110 -89 -101 -97 3 -3 43 8 89 25 l83 30 27 -26 c54 -52 109 -183 109
-262 l0 -34 -37 30 c-56 44 -164 98 -246 124 -94 29 -270 31 -367 5 -108 -29
-271 -97 -333 -138 -32 -22 -60 -39 -62 -39 -5 0 22 108 39 160 l16 45 -36
-40 c-20 -22 -53 -67 -75 -100 -46 -71 -49 -57 -9 45 49 124 117 206 220 266
l35 20 88 -38 c140 -61 141 -45 2 46 -95 63 -130 103 -144 166 -25 112 50 264
154 311 47 22 82 23 139 7z m-1182 -50 c0 -19 -12 -62 -26 -96 -30 -70 -81
-269 -92 -352 -13 -109 -25 -88 -20 35 6 134 29 243 75 354 45 108 63 125 63
59z m2124 -81 c31 -90 54 -220 54 -304 l0 -64 -30 34 c-16 19 -30 45 -30 58 0
17 -3 20 -9 10 -9 -15 -18 -4 -16 19 1 8 3 21 3 29 1 7 8 11 17 7 10 -3 15 1
16 12 2 30 -3 57 -12 68 -5 6 -6 14 -2 17 3 4 4 7 0 7 -3 0 -12 -7 -20 -15
-14 -13 -18 -8 -36 46 -15 44 -18 66 -11 78 9 13 10 13 8 1 -1 -8 10 -27 25
-42 24 -24 40 -26 18 -2 -13 14 -32 111 -24 130 6 15 7 15 15 0 5 -9 21 -49
34 -89z m-185 35 c-11 -21 -41 -65 -68 -98 l-48 -59 -6 30 c-12 54 -10 61 24
73 18 6 50 30 72 52 21 22 40 40 42 40 2 0 -5 -17 -16 -38z m-1943 -102 c-5
-17 -14 -30 -19 -30 -4 0 -6 -8 -3 -17 5 -14 4 -15 -4 -4 -6 9 -4 25 7 51 18
44 35 44 19 0z m435 -5 c-3 -9 -8 -14 -10 -11 -3 3 -2 9 2 15 9 16 15 13 8 -4z
m-89 -34 c-7 -43 12 -59 48 -40 11 6 22 8 26 5 3 -3 -1 -6 -9 -6 -12 0 -11 -2
1 -11 11 -8 5 -9 -27 -6 -28 3 -43 1 -46 -8 -3 -7 -14 -15 -25 -17 -18 -5 -19
-2 -11 31 5 20 9 40 9 44 0 5 6 5 13 1 7 -5 6 0 -3 11 -14 17 -13 18 3 12 11
-4 17 -2 17 8 0 8 2 15 5 15 3 0 2 -17 -1 -39z m411 -49 c-3 -8 -5 -26 -5 -40
-1 -26 -4 -24 -51 28 -80 87 -80 95 -4 58 43 -22 64 -37 60 -46z m1299 9 c10
-11 23 -18 27 -15 5 3 4 -7 -1 -22 -6 -15 -8 -34 -5 -43 5 -11 1 -11 -14 3
-11 10 -18 26 -16 37 4 20 -11 27 -17 8 -2 -5 -15 2 -28 17 -14 15 -20 24 -14
21 15 -8 27 20 13 29 -5 3 -17 0 -26 -8 -15 -12 -15 -11 -3 9 14 21 14 21 39
3 15 -10 34 -27 45 -39z m-2034 -22 c0 6 5 11 12 11 6 0 3 -9 -7 -20 -10 -11
-23 -20 -29 -20 -6 0 -4 5 4 10 14 9 7 14 -13 11 -5 -1 -6 3 -2 9 5 8 11 7 21
-1 10 -8 14 -8 14 0z m220 -2 c0 -2 -6 -23 -14 -48 -8 -24 -17 -62 -21 -83 -5
-28 -9 -36 -15 -26 -5 8 -6 17 -2 20 4 3 7 12 7 20 -1 8 3 29 8 45 5 17 10 39
12 50 2 11 4 21 4 23 1 3 21 3 21 -1z m1685 -37 c3 -16 0 -20 -10 -16 -7 2
-15 0 -17 -6 -2 -6 -10 -9 -17 -7 -9 3 -6 12 9 32 24 31 29 30 35 -3z m-1394
-19 c-11 -7 -10 -11 5 -20 11 -6 13 -11 6 -11 -7 0 -10 -4 -7 -10 3 -5 2 -10
-4 -10 -5 0 -13 5 -16 10 -8 13 -25 13 -25 -1 0 -5 5 -7 12 -3 7 5 8 3 4 -5
-6 -9 -12 -9 -25 3 -21 19 -73 8 -136 -29 -36 -21 -151 -133 -148 -145 1 -3
-5 -16 -12 -30 l-14 -25 2 31 c1 20 6 30 14 27 8 -3 11 3 8 16 -2 12 -1 19 3
17 4 -3 19 16 32 42 14 26 33 55 44 65 17 15 15 22 -7 18 -5 -1 -6 3 -2 8 3 6
13 7 22 4 10 -4 14 -2 10 4 -4 7 12 17 40 27 55 19 63 20 63 5 0 -6 -7 -9 -15
-6 -8 4 -17 2 -19 -2 -6 -10 22 -8 47 3 9 5 31 6 47 4 18 -3 35 1 41 9 6 7 19
13 28 13 13 0 13 -2 2 -9z m135 -93 l29 -33 -32 29 c-31 28 -38 36 -30 36 2 0
16 -15 33 -32z m-416 18 c0 -2 -7 -7 -16 -10 -8 -3 -12 -2 -9 4 6 10 25 14 25
6z m315 -17 c-4 -5 -1 -9 4 -9 6 0 11 -4 11 -8 0 -5 -7 -9 -15 -9 -8 0 -12 4
-9 8 2 4 0 10 -6 14 -6 4 -8 11 -4 16 3 5 10 7 15 3 5 -3 7 -10 4 -15z m58
-57 c10 -10 14 -21 11 -25 -9 -9 -55 23 -48 34 8 14 19 11 37 -9z m-217 -44
c-4 -18 -10 -47 -13 -64 -4 -27 -10 -33 -41 -38 -20 -3 -37 -4 -38 -3 -2 1 1
20 6 42 6 26 20 50 42 68 42 35 52 34 44 -5z m109 -52 c-12 -40 -14 -61 -6
-69 8 -10 2 -14 -24 -15 -31 -2 -35 0 -34 20 1 17 2 19 6 5 2 -9 9 -15 14 -11
5 3 6 10 3 16 -4 6 0 14 7 19 9 6 10 9 2 9 -12 0 -10 37 3 49 4 3 4 -2 1 -12
-4 -11 -3 -16 3 -12 6 3 10 14 10 24 0 17 20 44 27 37 2 -2 -3 -29 -12 -60z
m1366 19 c1 -17 -18 -17 -25 0 -4 11 -1 15 10 13 8 -2 15 -7 15 -13z m-1291
-19 c0 -3 -4 -8 -10 -11 -5 -3 -10 -1 -10 4 0 6 5 11 10 11 6 0 10 -2 10 -4z
m4 -51 c-7 -16 -24 -21 -24 -6 0 8 7 13 27 20 1 1 0 -6 -3 -14z m-46 -94 c-7
-9 -13 -17 -14 -19 0 -1 -1 12 -2 29 -1 25 2 28 14 18 11 -9 12 -15 2 -28z
m-176 -11 c3 -36 1 -40 -16 -38 -12 2 -23 14 -27 32 -10 35 -4 46 21 46 14 0
19 -9 22 -40z m98 -15 c4 3 13 -9 20 -25 7 -17 16 -30 21 -30 5 0 6 -19 3 -42
-7 -48 -24 -75 -24 -39 0 12 -4 20 -10 16 -6 -4 -6 -15 0 -31 6 -15 6 -23 1
-19 -13 8 -31 102 -29 150 1 22 3 34 6 27 2 -7 7 -10 12 -7z m1071 -51 c146
-53 204 -110 225 -220 l7 -38 -47 41 c-139 122 -343 174 -544 139 -188 -33
-309 -90 -389 -185 -49 -56 -53 -59 -53 -34 0 129 228 284 475 324 92 15 245
2 326 -27z m-153 -158 c90 -24 177 -104 217 -198 29 -72 10 -197 -37 -235 -13
-11 -14 -3 -10 67 6 96 -5 125 -63 179 -58 53 -133 76 -232 68 -139 -10 -227
-73 -291 -207 -39 -82 -47 -78 -40 19 6 68 36 135 89 195 50 56 96 85 173 107
75 22 126 23 194 5z m262 -107 c6 -11 10 -28 8 -38 -2 -14 -13 -4 -41 36 l-39
55 31 -16 c17 -9 35 -25 41 -37z m-696 14 c-10 -16 -27 -46 -39 -67 -14 -26
-31 -42 -48 -47 -25 -7 -27 -5 -21 14 13 45 40 80 79 102 51 30 51 30 29 -2z
m382 -187 c3 -15 3 -56 -1 -92 -6 -58 -11 -70 -42 -100 -19 -19 -43 -34 -54
-34 -22 0 -22 -2 -8 38 6 17 21 38 35 47 32 21 32 64 0 94 l-24 23 -12 -39
c-22 -67 -70 -153 -85 -153 -19 0 -19 3 4 48 11 21 35 85 55 142 20 58 39 112
42 120 7 20 80 -57 90 -94z m-201 -30 c-7 -58 -61 -179 -76 -170 -5 3 -7 10
-3 15 3 5 2 9 -3 8 -23 -4 -24 3 -5 24 l22 23 -21 22 c-13 14 -19 33 -17 50
l3 27 20 -32 c23 -40 32 -41 47 -8 9 21 8 32 -5 60 -15 32 -15 35 1 44 30 17
44 -6 37 -63z m311 59 c3 -8 -4 -28 -15 -44 -21 -30 -29 -91 -11 -91 5 0 25
14 45 31 l35 31 0 -40 c0 -33 -5 -44 -32 -64 -18 -14 -46 -32 -63 -40 l-30
-16 9 92 c10 113 44 189 62 141z m-576 -60 c0 -16 -6 -25 -15 -25 -15 0 -21
31 -8 43 13 14 23 6 23 -18z"/>
<path d="M1707 3573 c-10 -9 -9 -23 2 -23 5 0 11 7 15 15 5 15 -5 20 -17 8z"/>
<path d="M1564 3304 c-5 -1 -21 -5 -36 -8 -16 -4 -28 -10 -28 -15 0 -8 32 -11
128 -13 23 -1 42 -5 42 -10 0 -4 6 -8 13 -8 6 1 -1 11 -17 24 -25 21 -76 36
-102 30z"/>
<path d="M1580 2539 c0 -5 5 -7 10 -4 6 3 10 8 10 11 0 2 -4 4 -10 4 -5 0 -10
-5 -10 -11z"/>
<path d="M2440 2622 c-73 -36 -82 -142 -18 -202 31 -29 112 -74 175 -98 l51
-19 -4 36 -5 36 29 -33 29 -32 14 27 13 28 4 -33 c3 -29 6 -32 30 -26 125 27
225 88 237 144 14 65 -60 150 -132 150 -38 0 -93 -32 -142 -84 -19 -20 -38
-36 -41 -36 -3 0 -25 27 -48 60 -42 59 -99 100 -139 100 -10 0 -34 -8 -53 -18z"/>
<path d="M3430 2565 c0 -8 4 -15 10 -15 5 0 7 7 4 15 -4 8 -8 15 -10 15 -2 0
-4 -7 -4 -15z"/>
<path d="M1670 2479 c0 -5 5 -7 10 -4 6 3 10 8 10 11 0 2 -4 4 -10 4 -5 0 -10
-5 -10 -11z"/>
<path d="M3359 2493 c-13 -16 -12 -17 4 -4 16 13 21 21 13 21 -2 0 -10 -8 -17
-17z"/>
</g>
</svg>
